<?xml version="1.0" standalone="no"?>
<!DOCTYPE svg PUBLIC "-//W3C//DTD SVG 20010904//EN"
 "http://www.w3.org/TR/2001/REC-SVG-20010904/DTD/svg10.dtd">
<svg version="1.0" xmlns="http://www.w3.org/2000/svg"
 width="752.000000pt" height="752.000000pt" viewBox="0 0 752.000000 752.000000"
 preserveAspectRatio="xMidYMid meet">
<metadata>
Created by potrace 1.11, written by Peter Selinger 2001-2013
</metadata>
<g transform="translate(0.000000,752.000000) scale(0.100000,-0.100000)"
fill="#000000" stroke="none">
<path d="M3538 7435 c-1 -2 -43 -6 -93 -9 -91 -6 -145 -12 -200 -21 -16 -2
-48 -7 -70 -10 -22 -3 -64 -11 -94 -16 -30 -6 -64 -12 -75 -14 -12 -2 -52 -10
-91 -19 -38 -9 -81 -19 -95 -22 -90 -19 -418 -129 -537 -180 -154 -65 -425
-201 -431 -217 -2 -4 -8 -5 -13 -1 -5 3 -9 1 -9 -3 0 -5 -17 -17 -37 -28 -21
-11 -59 -34 -84 -52 -26 -18 -50 -33 -55 -33 -5 0 -21 -11 -36 -25 -15 -14
-30 -25 -34 -25 -8 0 -206 -149 -220 -166 -6 -8 -14 -14 -18 -14 -3 0 -14 -8
-24 -17 -11 -10 -50 -45 -88 -78 -85 -75 -265 -255 -321 -320 -23 -28 -51 -61
-63 -75 -12 -14 -34 -41 -49 -60 -14 -19 -28 -37 -31 -40 -4 -3 -19 -23 -35
-45 -17 -22 -32 -42 -35 -45 -3 -3 -9 -12 -15 -21 -19 -30 -90 -134 -95 -139
-4 -4 -69 -112 -141 -235 -19 -33 -122 -237 -124 -245 -4 -23 -31 -80 -37 -80
-4 0 -7 -3 -6 -7 0 -5 -2 -15 -5 -23 -49 -117 -158 -448 -161 -485 -1 -11 -4
-24 -7 -30 -4 -5 -10 -28 -14 -50 -5 -22 -9 -44 -10 -50 -11 -49 -35 -178 -40
-210 -3 -22 -7 -53 -10 -70 -23 -150 -29 -254 -29 -500 0 -126 3 -259 7 -295
3 -36 9 -90 12 -120 6 -53 12 -95 15 -95 0 0 3 -22 6 -50 4 -51 6 -61 17 -105
4 -14 9 -38 11 -55 3 -16 9 -45 15 -62 5 -18 8 -33 6 -33 -2 0 2 -18 10 -40 8
-22 14 -41 14 -43 -6 -34 126 -417 201 -582 74 -163 213 -417 252 -461 10 -11
18 -24 18 -28 0 -6 53 -87 92 -141 39 -53 227 -287 256 -318 40 -43 258 -259
295 -292 12 -11 58 -49 102 -85 44 -36 82 -67 85 -71 3 -3 46 -34 95 -70 50
-35 92 -67 93 -71 2 -5 7 -8 12 -8 4 0 44 -24 89 -52 86 -57 140 -89 144 -85
1 1 16 -8 32 -19 64 -45 291 -155 450 -218 39 -16 79 -32 90 -37 62 -25 310
-103 360 -112 11 -2 27 -7 35 -10 17 -6 99 -24 149 -32 19 -3 37 -7 40 -9 3
-2 24 -7 46 -10 22 -4 47 -8 55 -11 14 -4 62 -11 140 -20 19 -2 51 -7 70 -10
202 -31 725 -26 950 10 19 3 50 7 69 10 38 5 101 15 116 19 6 2 33 7 60 11 57
10 64 12 68 15 1 1 9 3 17 5 39 8 69 15 110 26 25 6 52 12 60 14 79 19 343
108 415 140 101 44 154 67 165 70 8 2 222 110 250 126 14 8 28 18 31 22 3 5 8
7 10 5 2 -1 51 26 108 62 58 36 116 72 130 80 13 8 32 20 40 27 9 6 54 40 101
74 75 55 201 156 284 229 95 84 336 335 336 350 0 6 4 10 8 10 4 0 26 23 47
52 22 28 44 56 50 62 45 46 253 356 293 436 7 14 20 39 30 55 51 84 140 272
197 415 34 85 111 312 120 350 2 8 4 15 5 15 2 0 10 37 12 63 1 12 5 22 9 22
3 0 6 6 6 13 1 6 8 46 17 87 8 41 18 86 21 100 2 14 7 36 10 50 3 14 7 42 10
62 2 21 6 53 9 70 42 257 42 786 0 998 -1 8 -3 15 -4 15 -1 0 -3 14 -4 30 -5
47 -16 114 -27 164 -6 25 -13 57 -15 71 -2 14 -7 36 -11 50 -4 14 -8 30 -8 35
-1 6 -7 30 -14 55 -7 25 -14 52 -16 60 -5 23 -80 247 -108 320 -61 162 -144
336 -236 494 -28 49 -51 93 -51 97 0 5 -4 9 -10 9 -5 0 -10 7 -10 15 0 8 -4
15 -10 15 -5 0 -10 5 -10 10 0 12 -122 192 -151 224 -11 11 -19 23 -19 27 0 4
-6 14 -13 21 -7 7 -30 35 -52 63 -130 162 -341 380 -472 488 -35 28 -63 54
-63 59 0 4 -5 8 -10 8 -6 0 -21 9 -33 21 -21 20 -231 174 -265 194 -9 6 -42
26 -72 45 -128 82 -459 260 -484 260 -3 0 -31 12 -63 26 -32 14 -67 30 -78 34
-11 4 -38 15 -60 23 -55 22 -157 57 -175 62 -8 2 -35 10 -60 19 -25 9 -54 16
-65 16 -12 0 -25 4 -30 9 -6 5 -23 12 -40 15 -16 3 -68 15 -115 26 -47 11 -98
23 -115 25 -16 2 -66 11 -111 19 -45 8 -103 18 -130 21 -27 3 -67 9 -89 12
-22 3 -60 8 -85 10 -65 5 -557 12 -562 8z"/>
</g>
</svg>
