<?xml version="1.0" encoding="utf-8"?>
<!-- Generator: Adobe Illustrator 23.0.1, SVG Export Plug-In . SVG Version: 6.00 Build 0)  -->
<svg version="1.1" id="Layer_1" xmlns="http://www.w3.org/2000/svg" xmlns:xlink="http://www.w3.org/1999/xlink" x="0px" y="0px"
	 viewBox="0 0 95 95" style="enable-background:new 0 0 95 95;" xml:space="preserve">
<style type="text/css">
	.st0{fill:white;}
	.st1{fill:black;}
</style>
<title>Artboard</title>
<desc>Created with Sketch.</desc>
<circle id="Oval" class="st0" cx="47.5" cy="47.5" r="47.5"/>
<g id="deseo-2">
	<path id="deseo" class="st1" d="M19.6,51.5c0,0.7,0.1,1.3,0.4,1.8c0.3,0.4,0.8,0.7,1.4,0.7c0.5,0,1-0.2,1.3-0.6
		c0.3-0.4,0.5-1,0.5-1.6v-7c0-0.6-0.2-1-0.5-1.4c-0.3-0.4-0.8-0.6-1.3-0.6c-0.7,0-1.2,0.2-1.4,0.6c-0.2,0.4-0.4,0.9-0.4,1.5
		C19.6,44.9,19.6,51.5,19.6,51.5z M23.2,57.4v-1.6c-0.2,0.2-0.4,0.4-0.6,0.7c-0.2,0.2-0.5,0.4-0.7,0.6c-0.3,0.2-0.6,0.3-0.9,0.4
		c-0.3,0.1-0.7,0.1-1.2,0.1c-1.5,0-2.6-0.6-3.2-1.7c-0.2-0.4-0.4-0.9-0.5-1.5C16,53.8,16,53,16,52v-6.9c0-1.3,0-2.3,0.1-2.9
		c0.1-1.2,0.7-2.1,1.7-2.6c0.5-0.3,1.1-0.5,2-0.5c0.7,0,1.3,0.2,1.9,0.5c0.6,0.3,1,0.8,1.4,1.4h0.1v-9h3.6v25.4H23.2z M40.4,49.7
		h-7.2v2.5c0,0.6,0.2,1,0.5,1.3S34.4,54,35,54c0.7,0,1.1-0.2,1.4-0.6c0.3-0.4,0.4-0.8,0.4-1.2h3.6c0,1.6-0.5,2.9-1.5,3.8
		c-0.5,0.5-1,0.9-1.7,1.2c-0.7,0.3-1.4,0.4-2.2,0.4c-1.1,0-2.1-0.2-2.9-0.7s-1.4-1.1-1.8-1.9c-0.3-0.5-0.4-1-0.5-1.6
		c-0.1-0.6-0.1-1.3-0.1-2v-6c0-0.7,0-1.4,0.1-2c0.1-0.6,0.3-1.2,0.5-1.6c0.4-0.8,1-1.4,1.8-1.9s1.8-0.7,2.9-0.7
		c0.8,0,1.6,0.1,2.3,0.4c0.7,0.3,1.3,0.7,1.7,1.2c1,1.1,1.4,2.4,1.4,4C40.4,44.8,40.4,49.7,40.4,49.7z M33.2,46.9h3.6v-2.1
		c0-0.7-0.2-1.2-0.5-1.6c-0.3-0.3-0.8-0.5-1.3-0.5s-1,0.2-1.3,0.5c-0.3,0.3-0.5,0.9-0.5,1.6C33.2,44.8,33.2,46.9,33.2,46.9z
		 M49.6,44.4c0-0.6-0.2-1.1-0.6-1.4c-0.4-0.3-0.8-0.5-1.3-0.5c-0.6,0-1,0.2-1.3,0.6c-0.3,0.4-0.5,0.8-0.5,1.3c0,0.3,0.1,0.7,0.2,1
		s0.6,0.6,1.3,0.9l2.1,0.9c1.4,0.5,2.3,1.2,2.8,2.1c0.5,0.9,0.8,1.9,0.8,3c0,0.8-0.1,1.5-0.4,2.1c-0.3,0.7-0.6,1.2-1.1,1.7
		s-1,0.9-1.7,1.2c-0.7,0.3-1.4,0.4-2.2,0.4c-1.5,0-2.7-0.5-3.7-1.4c-0.5-0.5-0.9-1-1.2-1.7c-0.3-0.7-0.5-1.5-0.5-2.4h3.4
		c0.1,0.5,0.2,1,0.5,1.4c0.3,0.4,0.8,0.6,1.4,0.6c0.5,0,1-0.2,1.4-0.5s0.6-0.8,0.6-1.4c0-0.5-0.1-0.9-0.4-1.3
		c-0.3-0.4-0.7-0.7-1.4-0.9l-1.7-0.6c-1.1-0.4-2-1.1-2.7-1.9c-0.7-0.8-1-1.9-1-3.1c0-0.8,0.1-1.5,0.4-2.1c0.3-0.7,0.7-1.2,1.2-1.7
		s1-0.8,1.7-1.1s1.3-0.4,2.1-0.4c0.8,0,1.4,0.1,2,0.4c0.6,0.3,1.2,0.6,1.6,1.1s0.8,1,1.1,1.7s0.4,1.3,0.4,2.1h-3.3V44.4z M66.1,49.7
		h-7.2v2.5c0,0.6,0.2,1,0.5,1.3s0.8,0.5,1.3,0.5c0.7,0,1.1-0.2,1.4-0.6c0.2-0.4,0.4-0.8,0.4-1.2h3.6c0,1.6-0.5,2.9-1.5,3.8
		c-0.5,0.5-1,0.9-1.7,1.2c-0.7,0.3-1.4,0.4-2.2,0.4c-1.1,0-2.1-0.2-2.9-0.7S56.4,55.8,56,55c-0.3-0.5-0.4-1-0.5-1.6
		c-0.1-0.6-0.1-1.3-0.1-2v-6c0-0.7,0-1.4,0.1-2c0.1-0.6,0.3-1.2,0.5-1.6c0.4-0.8,1-1.4,1.8-1.9s1.8-0.7,2.9-0.7
		c0.8,0,1.6,0.1,2.3,0.4c0.7,0.3,1.3,0.7,1.7,1.2c1,1.1,1.4,2.4,1.4,4C66.1,44.8,66.1,49.7,66.1,49.7z M58.9,46.9h3.6v-2.1
		c0-0.7-0.2-1.2-0.5-1.6c-0.3-0.4-0.8-0.5-1.3-0.5s-1,0.2-1.3,0.5c-0.3,0.3-0.5,0.9-0.5,1.6V46.9z M68.5,45.4c0-0.7,0-1.4,0.1-2
		c0.1-0.6,0.3-1.2,0.5-1.6c0.4-0.8,1-1.4,1.8-1.9c0.8-0.5,1.8-0.7,2.9-0.7c1.1,0,2.1,0.2,2.9,0.7s1.4,1.1,1.8,1.9
		c0.3,0.5,0.4,1,0.5,1.6c0.1,0.6,0.1,1.3,0.1,2v6c0,0.7,0,1.4-0.1,2c-0.1,0.6-0.3,1.2-0.5,1.6c-0.4,0.8-1,1.4-1.8,1.9
		c-0.8,0.5-1.8,0.7-2.9,0.7c-1.1,0-2.1-0.2-2.9-0.7s-1.4-1.1-1.8-1.9c-0.3-0.5-0.4-1-0.5-1.6c-0.1-0.6-0.1-1.3-0.1-2V45.4z
		 M72.1,51.9c0,0.7,0.2,1.2,0.5,1.6c0.3,0.3,0.8,0.5,1.3,0.5s1-0.2,1.3-0.5s0.5-0.9,0.5-1.6v-7.1c0-0.7-0.2-1.2-0.5-1.6
		c-0.3-0.3-0.8-0.5-1.3-0.5s-1,0.2-1.3,0.5c-0.3,0.3-0.5,0.9-0.5,1.6V51.9z"/>
</g>
</svg>
